<?xml version="1.0" encoding="iso-8859-1"?>
<!-- Uploaded to: SVG Repo, www.svgrepo.com, Generator: SVG Repo Mixer Tools -->
<svg version="1.1" id="Layer_1" xmlns="http://www.w3.org/2000/svg" xmlns:xlink="http://www.w3.org/1999/xlink" 
	 viewBox="0 0 512 512" xml:space="preserve">
<polyline style="fill:#00A99D;" points="403.939,375.69 387.945,503.637 124.053,503.637 108.06,375.69 "/>
<polyline style="fill:#33BAB1;" points="347.961,375.69 334.994,503.637 121.027,503.637 108.059,375.69 "/>
<polyline style="fill:#00A99D;" points="180.028,375.689 172.033,503.637 124.053,503.637 108.058,375.69 "/>
<rect x="100.06" y="351.697" style="fill:#A381BD;" width="311.869" height="23.99"/>
<rect x="100.06" y="351.697" style="fill:#8557A7;" width="263.888" height="23.99"/>
<rect x="100.06" y="351.697" style="fill:#662D91;" width="87.966" height="23.99"/>
<path id="SVGCleanerId_0" style="fill:#FF7BAC;" d="M363.872,239.766l0.072-0.021v-31.696c0-26.561-20.907-48.098-48.086-48.256
	v-0.015v-40.45c0-15.081-10.549-27.652-24.699-30.752l0.797-0.767c0-28.634-10.596-56.101-29.766-77.369l-2.191-2.296h-7.997
	l-2.206,2.296c-19.171,21.267-29.781,48.809-29.781,77.444l0.83,0.792c-14.137,3.202-24.678,15.832-24.548,30.941l0.344,40.172
	c-26.786,0-48.45,21.805-48.27,48.59l-0.086,31.371c-26.795,0-48.814,21.719-48.814,48.515v63.8h200.983
	c4.341,0,8.046,2.957,8.759,7.239L314,387.94c1.137,6.828,7.046,11.787,13.968,11.787s12.83-5.027,13.968-11.854l4.789-28.559
	c0.714-4.282,4.419-7.249,8.76-7.249h56.545v-63.8C412.03,261.606,390.476,239.99,363.872,239.766z"/>
<g>
	<path id="SVGCleanerId_0_1_" style="fill:#FF7BAC;" d="M363.872,239.766l0.072-0.021v-31.696c0-26.561-20.907-48.098-48.086-48.256
		v-0.015v-40.45c0-15.081-10.549-27.652-24.699-30.752l0.797-0.767c0-28.634-10.596-56.101-29.766-77.369l-2.191-2.296h-7.997
		l-2.206,2.296c-19.171,21.267-29.781,48.809-29.781,77.444l0.83,0.792c-14.137,3.202-24.678,15.832-24.548,30.941l0.344,40.172
		c-26.786,0-48.45,21.805-48.27,48.59l-0.086,31.371c-26.795,0-48.814,21.719-48.814,48.515v63.8h200.983
		c4.341,0,8.046,2.957,8.759,7.239L314,387.94c1.137,6.828,7.046,11.787,13.968,11.787s12.83-5.027,13.968-11.854l4.789-28.559
		c0.714-4.282,4.419-7.249,8.76-7.249h56.545v-63.8C412.03,261.606,390.476,239.99,363.872,239.766z"/>
</g>
<g>
	<path style="fill:#FF95BD;" d="M322.735,359.301l-4.789,28.638c-0.314,1.88-1.015,3.554-1.973,5.091
		c2.521,4.047,6.978,6.673,11.995,6.673c6.922,0,12.83-5.016,13.968-11.844l4.789-28.553c0.714-4.282,4.419-7.244,8.76-7.244h-23.99
		C327.154,352.062,323.449,355.018,322.735,359.301z"/>
	<path style="fill:#FF95BD;" d="M363.872,239.766l0.072-0.021v-31.696c0-26.561-20.907-48.098-48.086-48.256v-0.015v-40.45
		c0-15.081-10.549-27.652-24.699-30.752l0.797-0.767c0-28.634-10.596-56.101-29.766-77.369l-2.191-2.296h-7.997l-2.206,2.296
		c-2.046,2.269-3.943,4.57-5.791,6.979c15.472,20.155,23.99,44.851,23.99,70.429l-0.33,0.748
		c14.151,3.101,25.196,15.652,25.196,30.733v40.45v0.015c25.088,0.158,47.041,21.695,47.041,48.256v31.696l-0.072,0.021
		c26.603,0.224,48.158,21.839,48.158,48.496v63.8h24.043v-63.8C412.03,261.606,390.476,239.99,363.872,239.766z"/>
	<path style="fill:#FF95BD;" d="M172.823,239.745l-0.337-31.373c-0.18-26.785,21.42-48.594,48.206-48.594l-0.375-40.181
		c-0.13-15.109,10.396-27.758,24.532-30.96l-0.837-0.83c0-25.579,8.514-50.312,23.987-70.467c-1.848-2.407-3.748-4.633-5.793-6.902
		l-2.208-2.296h-7.997l-2.206,2.296c-19.171,21.269-29.781,48.811-29.781,77.446l0.83,0.792
		c-14.137,3.202-24.678,15.832-24.548,30.941l0.344,40.172c-26.786,0-48.45,21.805-48.27,48.59l-0.086,31.371
		c-26.795,0-48.814,21.719-48.814,48.515v63.8h25.088v-63.8C124.559,261.467,146.027,239.745,172.823,239.745z"/>
</g>
<rect x="124.051" y="479.647" style="fill:#A381BD;" width="263.888" height="23.99"/>
<polygon style="fill:#8557A7;" points="334.994,503.637 124.053,503.637 124.053,479.647 337.377,479.647 "/>
<rect x="124.051" y="479.647" style="fill:#662D91;" width="47.98" height="23.99"/>
<path d="M443.923,343.859h-88.439c-8.208,0-15.144,5.876-16.492,13.97l-4.789,28.728c-0.51,3.061-3.132,5.282-6.234,5.282
	c-3.103,0-5.725-2.221-6.234-5.282l-4.788-28.726c-1.35-8.096-8.285-13.972-16.492-13.972H68.077v15.68h24.076v23.883h8.922
	L117.131,512h277.736l16.04-128.578h9.484v-23.883h23.531v-15.68H443.923z M384.023,472.277h-36.805v15.68h34.849l-1.043,8.363
	H130.976l-1.044-8.363h42.713v-15.68h-44.671l-11.095-88.855h14.999v-15.68h-24.043v-8.203h192.619c0.51,0,0.941,0.366,1.024,0.87
	l1.222,7.333H147.557v15.68h157.759l0.952,5.715c1.775,10.652,10.903,18.384,21.701,18.384s19.925-7.731,21.701-18.384l0.952-5.715
	h44.484L384.023,472.277z M404.712,367.742h-51.476l1.222-7.334c0.084-0.503,0.515-0.869,1.025-0.869h49.228v8.203H404.712z"/>
<path d="M107.903,288.262c0-22.429,18.248-40.677,40.677-40.677h95.424v-15.68h-87.738l-0.055-23.777
	c-0.073-10.88,4.114-21.227,11.79-28.955c7.647-7.699,17.817-12.138,28.638-12.138h7.907l-0.411-48.075
	c-0.056-6.482,2.446-12.408,7.044-17.044c4.481-4.52,10.389-7.01,16.636-7.01h15.913v-15.68h-15.512
	c1.869-23.548,11.371-45.843,27.273-63.546h1.019c15.901,17.704,25.404,40,27.274,63.546h-16.011v15.68h16.683
	c13.055,0,24.086,11.183,24.086,24.421v32.027h-88.855v15.68h96c22.192,0,40.941,18.782,40.941,41.013v23.856h-40.651v15.68h47.444
	c22.429,0,40.677,18.248,40.677,40.677v47.444h15.68v-47.444c0-28.051-20.603-51.375-47.469-55.649v-24.564
	c0-14.989-5.925-29.181-16.685-39.963c-8.697-8.715-19.623-14.263-31.401-16.075v-32.683c0-16.325-10.272-30.746-24.516-36.915
	c-1.245-28.669-12.38-55.965-31.677-77.374C265.142,1.837,261.015,0,256.704,0h-1.409c-4.309,0-8.435,1.836-11.322,5.038
	c-19.31,21.42-30.446,48.737-31.679,77.424c-4.507,1.967-8.66,4.794-12.248,8.414c-7.564,7.63-11.681,17.722-11.589,28.418
	l0.281,33.009c-12.029,1.689-23.131,7.231-31.861,16.018c-10.643,10.714-16.446,24.923-16.346,39.977l0.056,24.184
	c-27.301,3.895-48.363,27.418-48.363,55.78v47.444h15.68C107.903,335.705,107.903,288.262,107.903,288.262z"/>
<rect x="188.329" y="472.278" width="143.213" height="15.68"/>
<g>
	<rect x="131.881" y="319.657" style="fill:#FFFFFF;" width="96.172" height="15.68"/>
	<rect x="243.733" y="319.657" style="fill:#FFFFFF;" width="15.68" height="15.68"/>
</g>
</svg>