<?xml version="1.0" encoding="iso-8859-1"?>
<!-- Uploaded to: SVG Repo, www.svgrepo.com, Generator: SVG Repo Mixer Tools -->
<svg version="1.1" id="Layer_1" xmlns="http://www.w3.org/2000/svg" xmlns:xlink="http://www.w3.org/1999/xlink" 
	 viewBox="0 0 512.007 512.007" xml:space="preserve">
<rect x="139.9" y="112.059" style="fill:#FFFFFF;" width="160.053" height="48.014"/>
<circle style="fill:#FCEE21;" cx="299.953" cy="112.059" r="48.014"/>
<circle style="fill:#FDF14D;" cx="299.953" cy="112.059" r="24.007"/>
<path style="fill:#BDB319;" d="M299.95,40.034c-39.776,0-72.022,32.245-72.022,72.022c0,39.775,32.245,72.022,72.022,72.022
	s72.022-32.246,72.022-72.022C371.97,72.28,339.726,40.034,299.95,40.034z M299.95,160.07c-26.518,0-48.014-21.496-48.014-48.014
	s21.497-48.014,48.014-48.014c26.518,0,48.014,21.496,48.014,48.014S326.468,160.07,299.95,160.07z"/>
<rect x="139.9" y="160.071" style="fill:#FDF14D;" width="160.053" height="344.095"/>
<rect x="139.9" y="160.071" style="fill:#FCEE21;" width="96.034" height="344.095"/>
<rect x="139.9" y="160.071" style="fill:#BDB319;" width="48.014" height="344.095"/>
<g>
	
		<rect x="202.544" y="234.838" transform="matrix(-0.7071 -0.7071 0.7071 -0.7071 195.7126 582.7518)" style="fill:#FFFFFF;" width="32.009" height="32.009"/>
	
		<rect x="249.198" y="292.221" transform="matrix(-0.7071 -0.7071 0.7071 -0.7071 234.7807 713.7001)" style="fill:#FFFFFF;" width="32.009" height="32.009"/>
	
		<rect x="203.923" y="409.507" transform="matrix(-0.7071 -0.7071 0.7071 -0.7071 74.5578 881.9067)" style="fill:#FFFFFF;" width="32.009" height="32.009"/>
	<rect x="139.9" y="480.165" style="fill:#FFFFFF;" width="160.053" height="24.007"/>
</g>
<rect x="180.055" y="472.298" width="79.41" height="15.673"/>
<path d="M218.554,284.558l-33.717-33.717l33.717-33.717l33.717,33.717L218.554,284.558z M207.002,250.841l11.552,11.552
	l11.552-11.552l-11.552-11.552L207.002,250.841z"/>
<path d="M219.926,459.237l-33.717-33.717l33.717-33.717l33.717,33.717L219.926,459.237z M208.375,425.52l11.552,11.552
	l11.552-11.552l-11.552-11.552L208.375,425.52z"/>
<rect x="-56.615" y="220.247" transform="matrix(-0.002 -1 1 -0.002 -56.2869 399.9931)" style="fill:#ED1C24;" width="456.137" height="15.673"/>
<rect x="196.773" y="183.915" width="14.628" height="15.673"/>
<rect x="252.15" y="207.947" width="15.673" height="15.673"/>
<rect x="259.464" y="360.497" width="16.718" height="15.673"/>
<rect x="219.76" y="343.779" width="16.718" height="15.673"/>
<rect x="267.823" y="408.561" width="16.718" height="15.673"/>
<rect x="196.773" y="368.856" width="14.628" height="15.673"/>
<rect x="187.369" y="304.074" width="16.718" height="15.673"/>
<rect x="187.369" y="448.266" width="16.718" height="15.673"/>
<path d="M299.95,32.082c-41.46,0-75.631,31.791-79.485,72.138h-88.399v407.787h175.72V191.542
	c40.36-3.845,72.154-38.073,72.154-79.544C379.941,67.965,343.984,32.082,299.95,32.082z M147.739,119.893h144.374v31.635H147.739
	V119.893z M260.517,104.22c0.646-3.291,1.698-6.444,3.107-9.404l9.404,9.404H260.517z M292.113,487.976v8.359H147.739v-8.359h23.958
	v-15.673h-23.958v-152.55h8.285v-15.673h-8.285v-72.096h8.285v-15.673h-8.285v-49.109h144.374v16.718h-15.93v15.673h15.93v101.842
	l-26.919-26.92l-33.717,33.717l33.717,33.717l26.919-26.92v157.274h-24.289v15.673H292.113z M276.746,308.231l-11.552,11.552
	l-11.552-11.552l11.552-11.552L276.746,308.231z M283.779,104.22l5.707-5.708L273.104,82.13c5.209-4.688,11.642-8.054,18.751-9.531
	V96.15h15.673V72.481c5.39,1.029,10.409,3.137,14.815,6.098l-11.931,11.932l11.083,11.081l11.93-11.93
	c2.775,4.13,4.801,8.797,5.897,13.803h-23.435v15.673h23.732c-1.001,5.581-3.149,10.769-6.203,15.302l-11.921-11.921l-11.082,11.083
	l11.899,11.899c-4.335,2.898-9.253,4.969-14.526,5.995V104.22H283.779z M307.786,175.781v-8.416
	c26.846-3.764,48.146-27.177,48.146-55.366c0-30.797-25.187-55.91-55.983-55.91c-28.179,0-51.537,21.299-55.306,48.131h-8.415
	c3.773-31.905,30.961-56.465,63.787-56.465c35.392,0,64.251,28.909,64.251,64.301C364.268,144.892,339.705,172.031,307.786,175.781z
	"/>
</svg>