<?xml version="1.0" encoding="iso-8859-1"?>
<!-- Uploaded to: SVG Repo, www.svgrepo.com, Generator: SVG Repo Mixer Tools -->
<svg version="1.1" id="Layer_1" xmlns="http://www.w3.org/2000/svg" xmlns:xlink="http://www.w3.org/1999/xlink" 
	 viewBox="0 0 511.998 511.998" xml:space="preserve">
<rect x="215.969" y="7.837" style="fill:#00A99D;" width="80.05" height="40.03"/>
<path d="M303.862,55.7h-95.726V0h95.726V55.7z M223.809,40.027h64.379V15.673h-64.379V40.027z"/>
<path style="fill:#8CCBF9;" d="M288.02,71.879v8.005c0,13.264,10.752,24.016,24.016,24.016l0,0
	c13.264,0,24.016,10.752,24.016,24.016v16.011H175.946v-16.011c0-13.264,10.752-24.016,24.016-24.016l0,0
	c13.264,0,24.016-10.752,24.016-24.016v-8.005H288.02z"/>
<path style="fill:#B2DDFB;" d="M312.423,103.899c-13.264,0-24.033-10.752-24.033-24.016v-7.786h-32.392v7.787
	c0,13.264,10.769,24.016,24.033,24.016c13.264,0,24.033,10.752,24.033,24.016v16.279h32.392v-16.281
	C336.456,114.652,325.686,103.899,312.423,103.899z"/>
<path style="fill:#65BAF7;" d="M199.574,103.899c13.264,0,24.033-10.752,24.033-24.016v-7.786h32.392v7.787
	c0,13.264-10.769,24.016-24.033,24.016s-24.033,10.752-24.033,24.016v16.279h-32.392v-16.281
	C175.542,114.652,186.311,103.899,199.574,103.899z"/>
<path style="fill:#8CCBF9;" d="M175.946,239.989v28.705c0,7.248,2.88,14.201,8.005,19.326l0,0
	c5.125,5.125,8.005,12.078,8.005,19.326v9.379c0,7.248-2.88,14.201-8.005,19.326l0,0c-5.125,5.125-8.005,12.078-8.005,19.326v135.08
	c0,7.569,6.136,13.705,13.705,13.705h132.697c7.568,0,13.705-6.136,13.705-13.705v-135.08c0-7.248-2.88-14.201-8.005-19.326l0,0
	c-5.125-5.125-8.005-12.078-8.005-19.326v-9.379c0-7.248,2.88-14.201,8.005-19.326l0,0c5.125-5.125,8.005-12.078,8.005-19.326
	v-28.705"/>
<path style="fill:#B2DDFB;" d="M328.097,288.021c5.126-5.126,8.359-12.078,8.359-19.327v-28.367h-32.392v28.367
	c0,7.248-2.712,14.201-7.837,19.327c-5.126,5.125-7.837,12.077-7.837,19.326v9.378c0,7.248,2.71,14.201,7.837,19.327
	c5.125,5.125,7.837,12.077,7.837,19.326v135.08c0,7.568-5.916,14.226-13.484,14.226h31.767c7.568,0,14.109-6.658,14.109-14.226
	v-135.08c0-7.248-3.233-14.201-8.359-19.326c-5.126-5.126-8.359-12.078-8.359-19.327v-9.378
	C319.738,300.098,322.971,293.146,328.097,288.021z"/>
<path style="fill:#65BAF7;" d="M183.901,288.021c-5.126-5.126-8.359-12.078-8.359-19.327v-28.367h32.392v28.367
	c0,7.248,2.712,14.201,7.837,19.327c5.126,5.125,7.837,12.077,7.837,19.326v9.378c0,7.248-2.71,14.201-7.837,19.327
	c-5.125,5.125-7.837,12.077-7.837,19.326v135.08c0,7.568,5.916,14.226,13.484,14.226h-31.767c-7.568,0-14.109-6.658-14.109-14.226
	v-135.08c0-7.248,3.233-14.201,8.359-19.326c5.126-5.126,8.359-12.078,8.359-19.327v-9.378
	C192.26,300.098,189.026,293.146,183.901,288.021z"/>
<path d="M183.783,232.153h144.432v-80.39H183.783V232.153z"/>
<rect x="175.949" y="143.924" style="fill:#00A99D;" width="160.11" height="96.068"/>
<circle style="fill:#FFFFFF;" cx="255.999" cy="191.958" r="48.032"/>
<path d="M333.588,293.563c6.642-6.643,10.301-15.476,10.301-24.869V127.915c0-17.564-14.289-31.852-31.853-31.852
	c-8.92,0-16.178-7.258-16.178-16.179v-0.472h8.207V63.739h-96.131v15.673h8.208v0.471c0,8.921-7.258,16.179-16.179,16.179
	c-17.564,0-31.853,14.289-31.853,31.852v140.779c0,9.393,3.658,18.224,10.301,24.869c3.682,3.681,5.709,8.578,5.709,13.784v9.379
	c0,5.207-2.028,10.103-5.709,13.784c-6.642,6.642-10.301,15.475-10.301,24.868v135.08c0,11.877,9.663,21.541,21.541,21.541h132.697
	c11.878,0,21.542-9.663,21.542-21.541V355.378c0-9.394-3.658-18.225-10.301-24.866c-3.682-3.682-5.71-8.579-5.71-13.785v-9.379
	C327.877,302.141,329.905,297.245,333.588,293.563z M328.215,232.153h-33.473c10.545-10.168,17.125-24.423,17.125-40.195
	s-6.58-30.026-17.125-40.195h33.473V232.153z M255.999,232.153c-22.163,0-40.195-18.032-40.195-40.195s18.031-40.195,40.195-40.195
	c22.163,0,40.195,18.032,40.195,40.195S278.162,232.153,255.999,232.153z M183.783,127.915c0-8.92,7.258-16.178,16.179-16.178
	c17.564,0,31.853-14.289,31.853-31.853v-0.472h48.369v0.471c0,17.565,14.289,31.853,31.852,31.853
	c8.921,0,16.179,7.258,16.179,16.178v8.174H183.783V127.915z M183.783,151.763h33.472c-10.545,10.168-17.125,24.423-17.125,40.195
	s6.58,30.026,17.125,40.195h-33.472V151.763z M318.445,287.347c-3.435,4.945-5.514,10.672-6.073,16.718h-40.7v15.673h40.666
	c0.696,8.256,4.239,15.928,10.166,21.856c3.682,3.681,5.71,8.577,5.71,13.783v29.144h-87.89v15.673h87.89v63.739h-87.89v15.673
	h87.89v10.851c0,3.236-2.633,5.867-5.868,5.867H189.65c-3.235,0-5.867-2.632-5.867-5.867v-10.851h32.51v-15.673h-32.51v-24.033
	h111.922v-15.673H183.783v-64.784h111.922v-15.673H187.64c0.566-0.76,1.171-1.495,1.854-2.178
	c5.927-5.928,9.469-13.599,10.165-21.855h40.667v-15.673h-40.7c-0.559-6.047-2.638-11.773-6.073-16.718h102.152v-15.673H184.032
	c-0.149-0.979-0.249-1.97-0.249-2.979v-20.869h144.432v20.869c0,1.008-0.099,2-0.249,2.979h-15.543v15.673H318.445z"/>
<rect x="240.325" y="104.49" width="31.347" height="15.673"/>
<path d="M208.135,0v55.7h95.726V0H208.135z M264.358,15.673v24.353H247.64V15.673H264.358z M223.809,15.673h8.158v24.353h-8.158
	V15.673z M288.188,40.027h-8.156V15.673h8.158v24.353H288.188z"/>
<rect x="231.966" y="176.588" width="48.065" height="15.673"/>
<rect x="247.64" y="200.62" width="16.718" height="15.673"/>
</svg>