<?xml version="1.0" encoding="iso-8859-1"?>
<!-- Uploaded to: SVG Repo, www.svgrepo.com, Generator: SVG Repo Mixer Tools -->
<svg version="1.1" id="Layer_1" xmlns="http://www.w3.org/2000/svg" xmlns:xlink="http://www.w3.org/1999/xlink" 
	 viewBox="0 0 512 512" xml:space="preserve">
<g>
	<rect x="156.023" y="296.024" style="fill:#FFFFFF;" width="16.009" height="176.104"/>
	<polygon style="fill:#FFFFFF;" points="360.539,200.802 127.616,200.802 124.004,111.911 364.151,111.911 	"/>
</g>
<polygon style="fill:#7AC943;" points="360.539,200.802 127.616,200.802 124.004,112.388 140.014,504.267 348.142,504.267 
	364.151,112.388 "/>
<polygon style="fill:#5C9732;" points="127.616,200.802 124.004,112.388 132.543,504.267 251.704,504.267 251.704,200.802 "/>
<rect x="332.283" y="200.799" style="fill:#FFFFFF;" width="15.696" height="15.696"/>
<rect x="140.012" y="472.128" style="fill:#F2F2F2;" width="208.124" height="32.02"/>
<g>
	<rect x="140.012" y="472.128" style="fill:#FFFFFF;" width="120.078" height="32.02"/>
	
		<rect x="188.036" y="175.944" transform="matrix(-0.7071 0.7071 -0.7071 -0.7071 503.3847 191.407)" style="fill:#FFFFFF;" width="48.029" height="48.029"/>
</g>
<g>
	<path style="fill:#006837;" d="M244.254,288.019c-4.397,0-8.401,1.268-11.945,3.33c7.148,4.161,12.07,11.817,12.07,20.685v160.839
		h24.068V312.035C268.447,298.771,257.518,288.019,244.254,288.019z"/>
	<path style="fill:#006837;" d="M148.09,288.019c-4.397,0-8.454,1.268-11.998,3.33c7.148,4.161,12.016,11.817,12.016,20.685v160.839
		h24.068V312.035C172.175,298.771,161.352,288.019,148.09,288.019z"/>
</g>
<rect x="251.708" y="392.296" style="fill:#FFFFFF;" width="16.743" height="15.696"/>
<path style="fill:#006837;" d="M341.844,288.019c4.397,0,7.865,1.268,11.41,3.33c-7.148,4.161-12.604,11.817-12.604,20.685v160.839
	h-25.114V312.035C315.536,298.771,328.582,288.019,341.844,288.019z"/>
<g>
	<rect x="315.54" y="416.364" style="fill:#FFFFFF;" width="16.743" height="15.696"/>
	<rect x="155.437" y="223.821" style="fill:#FFFFFF;" width="16.743" height="15.696"/>
	<rect x="139.74" y="256.26" style="fill:#FFFFFF;" width="15.696" height="15.696"/>
	<rect x="179.504" y="263.585" style="fill:#FFFFFF;" width="16.743" height="15.696"/>
	<rect x="236.012" y="321.139" style="fill:#FFFFFF;" width="15.696" height="15.696"/>
	<rect x="179.504" y="344.16" style="fill:#FFFFFF;" width="16.743" height="15.696"/>
	<rect x="251.708" y="256.26" style="fill:#FFFFFF;" width="16.743" height="15.696"/>
	<rect x="332.283" y="311.721" style="fill:#FFFFFF;" width="15.696" height="15.696"/>
	<rect x="196.247" y="423.689" style="fill:#FFFFFF;" width="15.696" height="15.696"/>
	<rect x="139.74" y="383.924" style="fill:#FFFFFF;" width="15.696" height="15.696"/>
</g>
<path style="fill:#FBB03B;" d="M299.955,55.877h-15.696v-2.651C284.258,23.877,308.136,0,337.485,0h58.686v15.696h-58.686
	c-20.694,0-37.53,16.836-37.53,37.53V55.877z"/>
<rect x="284.262" y="63.884" style="fill:#8CC63F;" width="15.696" height="64.041"/>
<rect x="284.262" y="135.931" style="fill:#FBB03B;" width="15.696" height="304.186"/>
<rect x="323.912" y="240.564" style="fill:#FFFFFF;" width="16.743" height="15.696"/>
<path d="M115.829,104.063L132.479,512h223.197l16.65-407.937L115.829,104.063L115.829,104.063z M355.975,119.76l-2.966,72.67
	H249.584l-37.525-37.525l-37.525,37.525h-39.387l-2.966-72.67H355.975z M340.089,280.357c-17.578,0-31.878,14.21-31.878,31.676
	v152.468h-32.439V312.034c0-17.867-13.79-31.863-31.393-31.863s-31.393,13.996-31.393,31.863v152.468H179.5V312.034
	c0-17.466-14.251-31.676-31.768-31.676c-3.033,0-6.041,0.47-8.942,1.36l-3.003-73.591h39.372l36.9,36.9l36.9-36.9h103.411
	l-3.007,73.673C346.363,280.856,343.241,280.357,340.089,280.357z M348.673,298.678l-6.768,165.825h-17.998V312.034
	c0-8.812,7.26-15.98,16.182-15.98C343.077,296.054,346.046,296.978,348.673,298.678z M260.075,464.503h-31.393V312.034
	c0-9.065,6.895-16.166,15.696-16.166s15.696,7.101,15.696,16.166V464.503z M139.476,298.532c2.119-1.346,4.884-2.478,8.256-2.478
	c9.012,0,16.071,7.019,16.071,15.98v152.468h-17.553L139.476,298.532z M189.194,199.966l22.863-22.863l22.863,22.863l-22.863,22.863
	L189.194,199.966z M147.548,496.304l-0.657-16.106h194.374l-0.657,16.106H147.548z"/>
</svg>