<?xml version="1.0" encoding="iso-8859-1"?>
<!-- Uploaded to: SVG Repo, www.svgrepo.com, Generator: SVG Repo Mixer Tools -->
<svg version="1.1" id="Layer_1" xmlns="http://www.w3.org/2000/svg" xmlns:xlink="http://www.w3.org/1999/xlink" 
	 viewBox="0 0 512 512" xml:space="preserve">
<rect x="215.874" y="46.645" style="fill:#F2F2F2;" width="80.267" height="24.081"/>
<rect x="199.481" y="6.277" style="fill:#FF1D25;" width="112.978" height="40.798"/>
<path style="fill:#534741;" d="M368.373,472.049V183.095c0-62.06-50.31-112.371-112.371-112.371S143.63,121.034,143.63,183.095
	v288.953c0,17.731,14.374,32.106,32.106,32.106c15.496,0,28.426-10.978,31.442-25.579c0.773-3.744,3.891-6.527,7.715-6.527h1.952
	c3.823,0,6.942,2.783,7.715,6.527c3.015,14.602,15.947,25.579,31.442,25.579s28.427-10.978,31.442-25.579
	c0.773-3.744,3.891-6.527,7.715-6.527h1.952c3.823,0,6.942,2.783,7.715,6.527c3.015,14.602,15.947,25.579,31.442,25.579
	C353.998,504.154,368.373,489.78,368.373,472.049z"/>
<rect x="143.63" y="263.364" style="fill:#FF1D25;" width="224.742" height="128.429"/>
<path style="fill:#FFFFFF;" d="M143.631,183.095c0-62.06,50.31-112.371,112.371-112.371s112.371,50.31,112.371,112.371"/>
<path style="fill:#F2F2F2;" d="M256.003,71.234c-6.86,0-13.545,0.966-20.066,2.143c52.47,9.473,92.304,55.292,92.304,110.735h40.132
	C368.373,120.3,318.063,71.234,256.003,71.234z"/>
<rect x="175.735" y="295.469" style="fill:#FFFFFF;" width="160.533" height="64.209"/>
<rect x="199.481" y="320.104" width="112.978" height="15.691"/>
<g>
	<rect x="295.722" y="407.976" style="fill:#FFFFFF;" width="16.737" height="15.691"/>
	<rect x="319.782" y="407.976" style="fill:#FFFFFF;" width="16.737" height="15.691"/>
	<rect x="272.708" y="407.976" style="fill:#FFFFFF;" width="15.691" height="15.691"/>
</g>
<g>
	<rect x="192.159" y="192.481" style="fill:#C69C6D;" width="15.691" height="15.691"/>
	<rect x="216.219" y="215.495" style="fill:#C69C6D;" width="15.691" height="15.691"/>
	<rect x="352.211" y="199.803" style="fill:#C69C6D;" width="15.691" height="15.691"/>
	<rect x="255.97" y="174.697" style="fill:#C69C6D;" width="15.691" height="16.737"/>
	<rect x="288.399" y="215.495" style="fill:#C69C6D;" width="15.691" height="15.691"/>
	<rect x="159.73" y="232.232" style="fill:#C69C6D;" width="15.691" height="15.691"/>
	<rect x="175.421" y="417.39" style="fill:#C69C6D;" width="16.737" height="15.691"/>
	<rect x="192.159" y="432.036" style="fill:#C69C6D;" width="15.691" height="15.691"/>
	<rect x="248.648" y="440.404" style="fill:#C69C6D;" width="14.645" height="15.691"/>
	<rect x="352.211" y="448.773" style="fill:#C69C6D;" width="15.691" height="15.691"/>
	<rect x="328.15" y="464.465" style="fill:#C69C6D;" width="15.691" height="15.691"/>
	<rect x="144.038" y="448.773" style="fill:#C69C6D;" width="15.691" height="15.691"/>
</g>
<path d="M202.436,139.299l-13.046-8.731c14.917-22.282,39.386-35.584,66.585-35.584v15.691
	C234.006,110.676,214.434,121.376,202.436,139.299z"/>
<path d="M303.048,72.471V54.397h16.737V0H192.163v54.397h15.691v18.558c-42.386,18.601-72.068,60.966-72.068,110.142v288.952
	c0,22.03,17.923,39.951,39.951,39.951c18.861,0,35.316-13.39,39.126-31.841c0.026-0.132,0.075-0.219,0.11-0.266h1.791
	c0.035,0.047,0.084,0.135,0.111,0.268C220.684,498.61,237.138,512,255.999,512c18.862,0,35.317-13.39,39.125-31.839
	c0.027-0.133,0.076-0.221,0.111-0.268h1.792c0.035,0.047,0.084,0.135,0.111,0.268C300.948,498.61,317.402,512,336.263,512
	c22.03,0,39.951-17.923,39.951-39.951V183.095C376.218,133.495,346.022,90.816,303.048,72.471z M207.854,15.691h7.323v14.645h15.691
	V15.691h16.737v14.645h15.691V15.691h16.737v14.645h15.691V15.691h8.369v23.014h-96.24V15.691z M287.357,54.397v12.639
	c-10.001-2.705-20.511-4.157-31.356-4.157c-11.242,0-22.128,1.556-32.456,4.455V54.397H287.357z M256.002,78.57
	c52.655,0,96.333,39.14,103.49,89.851h-206.98C159.669,117.709,203.347,78.57,256.002,78.57z M151.477,256.292v-72.18h209.05v72.18
	h-16.681v15.691h16.681v48.12h-16.414v-32.483h-176.22v32.483h-16.414v-48.12h185.046v-15.691H151.477z M328.421,303.312v48.52
	H183.584v-48.52H328.421z M336.267,496.309c-11.455,0-21.447-8.126-23.759-19.32c-1.555-7.528-7.887-12.786-15.398-12.786h-1.951
	c-7.512,0-13.843,5.258-15.398,12.786c-2.312,11.194-12.304,19.32-23.759,19.32c-11.455,0-21.447-8.126-23.759-19.32
	c-1.554-7.528-7.886-12.786-15.397-12.786h-1.952c-7.513,0-13.844,5.258-15.397,12.786c-2.312,11.194-12.304,19.32-23.759,19.32
	c-13.377,0-24.26-10.882-24.26-24.26v-72.442h16.626v-15.691h-16.626v-48.12h16.414v31.728h176.22v-31.728h16.414v48.12H175.425
	v15.691h185.102v72.442C360.527,485.426,349.645,496.309,336.267,496.309z"/>
</svg>